<svg width="103" height="105" viewBox="0 0 103 105" fill="none" xmlns="http://www.w3.org/2000/svg">
<path fill-rule="evenodd" clip-rule="evenodd" d="M24.0845 14.9566C23.1425 16.2219 21.1163 20.5307 20.1408 22.7207L87.893 51.1413C88.7734 48.9069 90.4418 44.4083 90.6723 42.8888C92.188 34.2699 88.1808 26.6156 79.9051 22.254L46.3507 8.17872C37.3814 5.26205 29.2013 7.76422 24.0845 14.9566ZM8.1029 51.3825L20.1279 22.7161L87.9062 51.1476L75.7848 80.0438C70.8267 91.8636 60.3382 96.01 48.4342 91.0165L19.3067 78.7981C7.5143 73.8515 3.11158 63.2814 8.1029 51.3825Z" fill="url(#paint0_linear_1_404)"/>
<g opacity="0.5" filter="url(#filter0_f_1_404)">
<path d="M64.946 28.4908L46.1541 20.9059C39.3378 18.1546 33.6188 20.8892 30.6196 28.3198L20.4617 53.4862C17.4133 61.0385 19.671 66.8795 26.4873 69.6307L45.2791 77.2157C52.2053 80.0113 57.7729 77.3289 60.8212 69.7765L70.9791 44.6101C73.9783 37.1796 71.8721 31.2865 64.946 28.4908Z" fill="#8400FF"/>
</g>
<path fill-rule="evenodd" clip-rule="evenodd" d="M28.4048 43.1368C28.0256 44.668 27.8239 49.4251 27.7715 51.822H101.243C101.191 49.421 100.989 44.6272 100.614 43.1368C98.6776 34.6026 92.0215 29.0942 82.7028 28.2734H46.3159C36.9166 29.0534 30.3412 34.525 28.4048 43.1368ZM27.7578 51.8228V82.9092C27.7578 95.8125 35.9066 103.857 48.6944 103.857H80.2809C93.1898 103.857 101.258 95.9758 101.258 83.1583V51.8228H27.7578ZM44.5393 69.6017C44.62 71.4759 46.1529 72.95 48.0085 72.8643C49.8239 72.7867 51.2761 71.235 51.1954 69.3526C51.1551 67.5192 49.6625 66.0859 47.8472 66.0859C45.9915 66.1717 44.5393 67.7234 44.5393 69.6017ZM61.1193 69.6017C61.2 71.4759 62.7329 72.95 64.5886 72.8643C66.4039 72.7867 67.8561 71.235 67.7755 69.3526C67.7351 67.5192 66.2425 66.0859 64.4272 66.0859C62.5716 66.1717 61.1193 67.7234 61.1193 69.6017ZM77.6992 84.4201C77.6992 86.2984 79.1918 87.8501 81.0474 87.8909C82.9434 87.8909 84.4763 86.3393 84.4763 84.4201C84.4763 82.505 82.9434 80.9534 81.0474 80.9534H81.0071C79.1514 80.9942 77.6588 82.5418 77.6992 84.4201ZM64.5886 87.6868C62.7329 87.7726 61.2 86.2985 61.1193 84.4202C61.1193 82.5418 62.5716 80.9943 64.4272 80.9085C66.2425 80.9085 67.7351 82.3418 67.7755 84.1793C67.8561 86.0576 66.4039 87.6093 64.5886 87.6868ZM47.9682 87.6868C46.1125 87.7726 44.5796 86.2985 44.4989 84.4202C44.4989 82.5418 45.9512 80.9943 47.8068 80.9085C49.6221 80.9085 51.1147 82.3418 51.1551 84.1793C51.2357 86.0576 49.7835 87.6093 47.9682 87.6868ZM81.0472 66.1309C79.1915 66.1717 77.7393 67.6825 77.7393 69.5609V69.6017C77.7796 71.476 79.3126 72.9051 81.1682 72.8643C82.9835 72.8275 84.4358 71.2759 84.3954 69.3975C84.3148 67.5968 82.8625 66.1309 81.0472 66.1309Z" fill="#8237FF" fill-opacity="0.38"/>
<g filter="url(#filter2_d_1_404)">
<path d="M49.4199 22.1895C51.1948 22.1896 52.5264 23.5372 52.5264 25.3379V37.7881C52.5262 39.5886 51.1947 40.9315 49.4199 40.9316C47.645 40.9316 46.3136 39.5887 46.3135 37.7881V25.3379C46.3135 23.5371 47.6449 22.1895 49.4199 22.1895ZM79.5957 22.1895C81.3302 22.1896 82.7021 23.5372 82.7021 25.3379V37.7881C82.702 39.5886 81.3301 40.9315 79.5957 40.9316C77.8208 40.9316 76.4894 39.5887 76.4893 37.7881V25.3379C76.4893 23.5371 77.8207 22.1895 79.5957 22.1895Z" fill="url(#paint2_linear_1_404)"/>
</g>
<g filter="url(#filter3_d_1_404)">
<path fill-rule="evenodd" clip-rule="evenodd" d="M44.5764 69.6388C44.6571 71.5131 46.19 72.9871 48.0457 72.9014C49.861 72.8238 51.3132 71.2721 51.2326 69.3897C51.1922 67.5563 49.6996 66.123 47.8843 66.123C46.0287 66.2088 44.5764 67.7605 44.5764 69.6388ZM61.1556 69.6388C61.2362 71.5131 62.7692 72.9871 64.6248 72.9014C66.4401 72.8238 67.8924 71.2721 67.8117 69.3897C67.7714 67.5563 66.2788 66.123 64.4635 66.123C62.6078 66.2088 61.1556 67.7605 61.1556 69.6388ZM77.7354 84.457C77.7354 86.3354 79.228 87.887 81.0837 87.9279C82.9796 87.9279 84.5126 86.3762 84.5126 84.457C84.5126 82.542 82.9796 80.9903 81.0837 80.9903H81.0433C79.1877 81.0311 77.6951 82.5787 77.7354 84.457ZM64.6248 87.724C62.7692 87.8098 61.2362 86.3357 61.1556 84.4573C61.1556 82.579 62.6078 81.0314 64.4635 80.9457C66.2788 80.9457 67.7714 82.3789 67.8117 84.2164C67.8924 86.0948 66.4401 87.6464 64.6248 87.724ZM48.0044 87.724C46.1488 87.8098 44.6158 86.3357 44.5352 84.4573C44.5352 82.579 45.9874 81.0314 47.8431 80.9457C49.6584 80.9457 51.151 82.3789 51.1913 84.2164C51.272 86.0948 49.8197 87.6464 48.0044 87.724ZM81.0835 66.1681C79.2278 66.2089 77.7756 67.7197 77.7756 69.5981V69.6389C77.8159 71.5131 79.3488 72.9423 81.2045 72.9015C83.0198 72.8647 84.4721 71.3131 84.4317 69.4347C84.351 67.634 82.8988 66.1681 81.0835 66.1681Z" fill="url(#paint3_linear_1_404)"/>
</g>
<path opacity="0.5" d="M31.5077 52.1296C31.5077 53.8643 32.8511 55.2358 34.6519 55.2358L92.8596 55.2358C94.6603 55.2358 96.0078 53.8643 96.0078 52.1296C96.0078 50.3547 94.6603 49.0234 92.8596 49.0234L34.6519 49.0234C32.8511 49.0234 31.5077 50.3547 31.5077 52.1296Z" fill="url(#paint5_linear_1_404)" fill-opacity="0.5"/>
<defs>
<filter id="filter0_f_1_404" x="0.129883" y="0.858215" width="91.178" height="96.4378" filterUnits="userSpaceOnUse" color-interpolation-filters="sRGB">
<feFlood flood-opacity="0" result="BackgroundImageFix"/>
<feBlend mode="normal" in="SourceGraphic" in2="BackgroundImageFix" result="shape"/>
<feGaussianBlur stdDeviation="9.5" result="effect1_foregroundBlur_1_404"/>
</filter>
<filter id="filter2_d_1_404" x="31.3135" y="7.18945" width="66.3887" height="48.7422" filterUnits="userSpaceOnUse" color-interpolation-filters="sRGB">
<feFlood flood-opacity="0" result="BackgroundImageFix"/>
<feColorMatrix in="SourceAlpha" type="matrix" values="0 0 0 0 0 0 0 0 0 0 0 0 0 0 0 0 0 0 127 0" result="hardAlpha"/>
<feOffset dx="5" dy="5"/>
<feGaussianBlur stdDeviation="5"/>
<feColorMatrix type="matrix" values="0 0 0 0 1 0 0 0 0 0.537255 0 0 0 0 0.160784 0 0 0 0.2 0"/>
<feBlend mode="normal" in2="BackgroundImageFix" result="effect1_dropShadow_1_404"/>
<feBlend mode="normal" in="SourceGraphic" in2="effect1_dropShadow_1_404" result="shape"/>
</filter>
<filter id="filter3_d_1_404" x="29.5352" y="51.123" width="69.9774" height="51.8048" filterUnits="userSpaceOnUse" color-interpolation-filters="sRGB">
<feFlood flood-opacity="0" result="BackgroundImageFix"/>
<feColorMatrix in="SourceAlpha" type="matrix" values="0 0 0 0 0 0 0 0 0 0 0 0 0 0 0 0 0 0 127 0" result="hardAlpha"/>
<feOffset dx="5" dy="5"/>
<feGaussianBlur stdDeviation="5"/>
<feColorMatrix type="matrix" values="0 0 0 0 1 0 0 0 0 0.52549 0 0 0 0 0.137255 0 0 0 0.5 0"/>
<feBlend mode="normal" in2="BackgroundImageFix" result="effect1_dropShadow_1_404"/>
<feBlend mode="normal" in="SourceGraphic" in2="effect1_dropShadow_1_404" result="shape"/>
</filter>
<linearGradient id="paint0_linear_1_404" x1="63.1265" y1="15.2158" x2="33.8891" y2="84.9151" gradientUnits="userSpaceOnUse">
<stop stop-color="#9F7FFF"/>
<stop offset="1" stop-color="#5C00FA"/>
</linearGradient>
<linearGradient id="paint2_linear_1_404" x1="80.5082" y1="38.0232" x2="81.6009" y2="23.9459" gradientUnits="userSpaceOnUse">
<stop stop-color="white"/>
<stop offset="1" stop-color="white" stop-opacity="0.2"/>
</linearGradient>
<linearGradient id="paint3_linear_1_404" x1="81.6782" y1="70.0606" x2="14.2736" y2="65.6194" gradientUnits="userSpaceOnUse">
<stop stop-color="white"/>
<stop offset="1" stop-color="white" stop-opacity="0.2"/>
</linearGradient>
<linearGradient id="paint5_linear_1_404" x1="48.9165" y1="52.042" x2="46.6039" y2="44.7986" gradientUnits="userSpaceOnUse">
<stop stop-color="white"/>
<stop offset="1" stop-color="white" stop-opacity="0.2"/>
</linearGradient>
</defs>
</svg>
