<?xml version="1.0" encoding="UTF-8"?>
<svg version="1.1" xmlns="http://www.w3.org/2000/svg" width="1563" height="1563">
<path d="M0 0 C9.85765962 0.25457688 19.80573723 8.25593742 27.875 13.375 C28.89352051 14.01775879 29.91204102 14.66051758 30.96142578 15.32275391 C38.51398657 20.11209803 46.02756027 24.961631 53.5 29.875 C54.46711914 30.50390137 55.43423828 31.13280273 56.43066406 31.78076172 C69.94323074 40.7570673 79.72304614 49.62858964 83.02279663 65.94152832 C84.58526324 76.1188141 84.02962748 86.62700734 83.98828125 96.890625 C83.98776169 99.44740804 83.9882831 102.00419148 83.98979187 104.56097412 C83.98970257 109.89651006 83.97970229 115.23188964 83.96118164 120.56738281 C83.93997861 126.71028321 83.93651659 132.85299653 83.9427436 138.99592614 C83.94846209 144.94505583 83.94265739 150.8941299 83.93157005 156.84325409 C83.92773632 159.35812874 83.92656221 161.87300898 83.9281559 164.38788605 C83.92852875 167.90485665 83.91584606 171.42154811 83.8996582 174.93847656 C83.90213562 175.96521484 83.90461304 176.99195313 83.90716553 178.04980469 C83.80593247 191.90355207 80.32693169 204.41013209 70.58203125 214.70703125 C64.46065583 220.31523747 57.3432344 224.28973441 50.13256836 228.32177734 C45.19247086 231.10951196 40.49657537 234.17880836 35.80297852 237.35986328 C27.43515106 243.01533099 18.88516141 248.39189265 10.33789062 253.77099609 C8.42786638 254.98830996 6.53185332 256.22774896 4.64648438 257.48291016 C3.67517578 258.12405762 2.70386719 258.76520508 1.703125 259.42578125 C0.8255957 260.01399658 -0.05193359 260.60221191 -0.95605469 261.20825195 C-3.375 262.5 -3.375 262.5 -7.375 262.5 C-7.50694249 236.89563071 -7.63738529 211.29125414 -7.76615143 185.68686867 C-7.82600355 173.79221875 -7.88630523 161.89757147 -7.94775391 150.00292969 C-8.00145373 139.60799607 -8.05421993 129.21305816 -8.10596704 118.81811464 C-8.13327174 113.33916461 -8.16097412 107.86021741 -8.18980408 102.38127518 C-8.24835998 91.19440608 -8.29834918 80.00758991 -8.33403826 68.82062328 C-8.35751421 62.24310617 -8.40505731 55.6660911 -8.46412516 49.0888015 C-8.50312485 44.46135994 -8.5298051 39.83389378 -8.55425167 35.20635486 C-8.56872237 32.99522291 -8.58849501 30.78411851 -8.61389256 28.57308507 C-8.64841703 25.51139288 -8.66412756 22.45012817 -8.67565918 19.38827515 C-8.69044658 18.48735004 -8.70523397 17.58642494 -8.72046947 16.65819907 C-8.71669378 9.87156123 -8.03130875 1.18982352 0 0 Z " fill="#5800FF" transform="translate(699.375,634.5)"/>
<path d="M0 0 C3.33109988 1.40382066 6.28230324 3.29041472 9.3125 5.25 C10.61247925 6.06102173 10.61247925 6.06102173 11.9387207 6.88842773 C14.6362286 8.57635633 17.31795123 10.28764532 20 12 C21.64204237 13.02923959 23.28523479 14.05664715 24.9296875 15.08203125 C29.63853776 18.02560305 34.32149928 21.00850166 39 24 C39.76006348 24.48388184 40.52012695 24.96776367 41.30322266 25.46630859 C74.29280936 46.48153064 74.29280936 46.48153064 78.09220886 61.8727417 C79.4388023 68.25735102 79.28698293 74.66254478 79.2746582 81.16113281 C79.27901286 82.57305163 79.28419851 83.98496809 79.29014587 85.3968811 C79.30345899 89.20650669 79.3041237 93.01603262 79.30158257 96.82567692 C79.30050867 100.01185608 79.30540639 103.19801543 79.310188 106.38419032 C79.32125429 113.89872028 79.32173536 121.41320023 79.31567383 128.92773438 C79.30962144 136.67421706 79.3219836 144.42051869 79.3432439 152.16697049 C79.36085564 158.82960708 79.36686235 165.49218599 79.36360615 172.154845 C79.36179413 176.12935494 79.36442233 180.10373539 79.37832069 184.07822418 C79.39088928 187.81134342 79.38896438 191.54417931 79.37590981 195.27729416 C79.37241549 197.29801929 79.3837261 199.31875304 79.39547729 201.33944702 C79.38846298 202.54495209 79.38144867 203.75045715 79.3742218 204.99249268 C79.37438954 206.03809986 79.37455729 207.08370705 79.37473011 208.1609993 C78.93991795 211.45518891 77.93651943 213.32333938 76 216 C73.86206055 217.61816406 73.86206055 217.61816406 71.38671875 219.015625 C70.47438477 219.5405957 69.56205078 220.06556641 68.62207031 220.60644531 C67.65366211 221.14881836 66.68525391 221.69119141 65.6875 222.25 C63.69536924 223.39366682 61.70448384 224.53950563 59.71484375 225.6875 C58.74144043 226.24695313 57.76803711 226.80640625 56.76513672 227.3828125 C51.90061517 230.22782316 47.19626127 233.30197228 42.484375 236.390625 C37.98935611 239.30249258 34.28860006 239.99437466 29 239 C20.60120296 235.21331878 12.95131511 229.75385974 5.35205078 224.58374023 C1.00918191 221.63029171 -3.4204813 218.94337998 -8.046875 216.44921875 C-10.6290305 214.53325937 -11.60270279 212.91580282 -13 210 C-13.28152237 207.17825503 -13.40128346 204.58201516 -13.3742218 201.76367188 C-13.37819621 200.93805 -13.38217061 200.11242813 -13.38626546 199.26178741 C-13.39588436 196.49726605 -13.38407283 193.73325695 -13.37231445 190.96875 C-13.37474255 188.98600066 -13.37846204 187.00325255 -13.38337708 185.02050781 C-13.3927872 179.63627706 -13.38335953 174.25222804 -13.37004495 168.86801147 C-13.35873379 163.23557506 -13.3628377 157.60314763 -13.36479187 151.97070312 C-13.36567495 142.51168852 -13.35459149 133.05274557 -13.33618164 123.59375 C-13.31501383 112.65502264 -13.31150407 101.71640025 -13.3177436 90.77765656 C-13.32343675 80.25857659 -13.31779216 69.73953362 -13.30657005 59.22045898 C-13.30192343 54.74209917 -13.3010505 50.26376197 -13.3031559 45.78540039 C-13.30503847 40.51261084 -13.29693722 35.23992825 -13.2810955 29.96716309 C-13.27685019 28.03096967 -13.27600376 26.09476541 -13.27878571 24.15856934 C-13.28200468 21.51770458 -13.2729328 18.87715996 -13.26069641 16.23632812 C-13.26447573 15.46833138 -13.26825506 14.70033463 -13.27214891 13.90906525 C-13.23154783 8.96276484 -12.47673715 5.37918764 -9.875 1.1875 C-6.7525883 -0.79002741 -3.52850654 -0.5603966 0 0 Z " fill="#009CDF" transform="translate(607,689)"/>
<path d="M0 0 C2.75118404 1.14907687 5.22354557 2.67512085 7.75 4.25 C8.49677002 4.7032666 9.24354004 5.1565332 10.01293945 5.62353516 C16.66772256 9.70283439 23.17177912 14.00308804 29.62890625 18.38671875 C33.23776212 20.83197486 36.87500914 23.22805283 40.53236389 25.59973145 C43.22760296 27.34901979 45.91590189 29.10883177 48.60391235 30.86920166 C49.93428533 31.73696634 51.26753814 32.60033445 52.60385132 33.45892334 C63.00831175 40.15057993 72.35038926 47.09975866 77 59 C77.34126419 59.80882629 77.68252838 60.61765259 78.03413391 61.45098877 C79.34850254 66.28054959 79.27064448 70.82074309 79.24291992 75.80371094 C79.24481827 76.88092407 79.24671661 77.95813721 79.24867249 79.06799316 C79.25237215 82.62352821 79.24168411 86.17885814 79.23046875 89.734375 C79.22927597 92.21291073 79.228824 94.69144691 79.2290802 97.16998291 C79.22751652 102.36497834 79.21923786 107.55990475 79.20581055 112.75488281 C79.18885651 119.39680608 79.18499536 126.03865124 79.18575573 132.68059921 C79.18548301 137.80056477 79.17998484 142.92051387 79.17275429 148.04047394 C79.16958299 150.48836391 79.16760383 152.93625573 79.16686058 155.38414764 C79.16467862 158.8157006 79.15589359 162.24717503 79.14526367 165.67871094 C79.14571686 166.68061462 79.14617004 167.68251831 79.14663696 168.71478271 C79.11894892 174.86564804 78.72919117 180.89225534 78 187 C70.7590837 183.15622709 63.76068283 179.07137178 56.875 174.625 C55.94486084 174.02848633 55.01472168 173.43197266 54.05639648 172.81738281 C52.07007844 171.5433711 50.08466592 170.26794663 48.10009766 168.99121094 C44.91890944 166.94791506 41.73177973 164.91418901 38.54296875 162.8828125 C33.27620983 159.52663379 28.01745516 156.15829943 22.765625 152.77880859 C21.04577432 151.67262639 19.32464962 150.56841921 17.6015625 149.46728516 C-5.93563467 134.40071738 -5.93563467 134.40071738 -10 122 C-12.48245221 109.11952669 -12.32679038 96.05507073 -12.3359375 82.9921875 C-12.34237909 80.80982377 -12.34910842 78.62746088 -12.35610962 76.44509888 C-12.36799629 71.90511061 -12.37179854 67.36519801 -12.37060547 62.82519531 C-12.37040079 57.01252676 -12.39789375 51.20033897 -12.43214989 45.38778496 C-12.45437153 40.89592248 -12.45844474 36.4041776 -12.45738602 31.91226578 C-12.45974174 29.76807089 -12.46856364 27.62387276 -12.48405075 25.47973251 C-12.50364873 22.49118505 -12.49790076 19.50370133 -12.48583984 16.51513672 C-12.49707886 15.63612198 -12.50831787 14.75710724 -12.51989746 13.85145569 C-12.46288889 8.29175158 -11.62751448 5.27377302 -8 1 C-5.10065952 -0.44967024 -3.23902165 -0.31636956 0 0 Z " fill="#00D7FF" transform="translate(510,710)"/>
</svg>
