<?xml version="1.0" encoding="UTF-8"?>
<svg version="1.1" xmlns="http://www.w3.org/2000/svg" width="1107" height="314">
<path d="M0 0 C4.19830413 0.36638178 7.09661599 1.5881343 10.6796875 3.64453125 C11.32188232 4.00063477 11.96407715 4.35673828 12.62573242 4.72363281 C19.80419061 8.77421686 26.69695272 13.27527265 33.55615234 17.83935547 C35.90919987 19.40141112 38.27220082 20.94755847 40.63671875 22.4921875 C42.23473641 23.54241905 43.83240185 24.59318673 45.4296875 25.64453125 C46.16356689 26.12374023 46.89744629 26.60294922 47.65356445 27.09667969 C53.9690254 31.28524701 60.20615696 35.50128782 64.1171875 42.14453125 C64.58769531 42.91410156 65.05820312 43.68367188 65.54296875 44.4765625 C68.63977937 51.4851339 69.0987134 58.63584466 69.06347656 66.20703125 C69.0669812 67.14973877 69.07048584 68.09244629 69.07409668 69.0637207 C69.08283726 72.15323438 69.07709205 75.24251559 69.0703125 78.33203125 C69.07166135 80.49479211 69.07360372 82.65755267 69.07611084 84.8203125 C69.07905172 89.34247742 69.07479783 93.86456308 69.06542969 98.38671875 C69.05403585 104.16664948 69.06060087 109.94639443 69.07257462 115.72631836 C69.0798212 120.1891417 69.07749243 124.6519214 69.07231903 129.11474609 C69.07099028 131.24528017 69.07260296 133.37581829 69.07727814 135.50634766 C69.08238947 138.49001475 69.07456865 141.47338604 69.06347656 144.45703125 C69.06752502 145.32690674 69.07157349 146.19678223 69.07574463 147.09301758 C68.99884 158.3287838 66.32257094 167.22584406 58.6796875 175.68359375 C53.69434874 180.45574368 48.36406283 183.95032792 42.3190918 187.25146484 C37.92586166 189.65268244 33.75755788 192.26853198 29.6171875 195.08203125 C22.89045512 199.64788162 16.04640437 204.00516002 9.1496582 208.30957031 C7.99856567 209.03031738 7.99856567 209.03031738 6.82421875 209.765625 C6.14464111 210.18900146 5.46506348 210.61237793 4.76489258 211.04858398 C2.74535812 212.31105763 2.74535812 212.31105763 0.8659668 213.99243164 C-1.67478119 215.64363195 -3.22363004 215.43696006 -6.1953125 215.33203125 C-6.37265935 188.74158593 -6.53832319 162.15109003 -6.69008827 135.56048584 C-6.76082801 123.21394769 -6.83538711 110.86745469 -6.91894531 98.52099609 C-6.9917669 87.75953288 -7.05741446 76.99805387 -7.11445653 66.23649502 C-7.14490862 60.53862549 -7.17894674 54.8408284 -7.22157669 49.14303589 C-7.26160034 43.77844282 -7.29202025 38.4138804 -7.31512642 33.04918861 C-7.32528281 31.08198214 -7.33892544 29.11479004 -7.35634804 27.14763451 C-7.37964959 24.45726131 -7.39028739 21.76711714 -7.39785767 19.07666016 C-7.4075743 18.30231849 -7.41729093 17.52797682 -7.427302 16.73017025 C-7.41639958 0.77065277 -7.41639958 0.77065277 0 0 Z " fill="#5800FE" transform="translate(218.1953125,30.66796875)"/>
<path d="M0 0 C3.76666346 0.62231831 6.1787477 1.8729133 9.45703125 3.83203125 C10.05749268 4.18813477 10.6579541 4.54423828 11.27661133 4.91113281 C17.4963409 8.64090023 23.56743705 12.61000171 29.62890625 16.58984375 C32.75572475 18.63536158 35.91211927 20.62143244 39.09765625 22.57421875 C64.78630986 38.35023934 64.78630986 38.35023934 68.22111511 52.55183411 C69.39459599 58.04015777 69.43259829 63.40866545 69.41918945 69.00268555 C69.42430038 70.11602264 69.42941132 71.22935974 69.43467712 72.37643433 C69.44850318 76.03226187 69.44762229 79.68789953 69.4453125 83.34375 C69.44920185 85.89484222 69.45353701 88.44593379 69.45829773 90.99702454 C69.46574386 96.33210624 69.46561852 101.66711886 69.46020508 107.00219727 C69.45415359 113.15931013 69.46651517 119.31619515 69.48777515 125.47326916 C69.50753393 131.41545257 69.51056327 137.3575655 69.50704002 143.29978371 C69.50755331 145.82076364 69.51279244 148.34174722 69.52285194 150.86270714 C69.53518311 154.38350434 69.52844524 157.90377187 69.5168457 161.42456055 C69.52448944 162.46418442 69.53213318 163.50380829 69.54000854 164.57493591 C69.50070229 169.97058762 69.22953402 173.87994936 66.14453125 178.51953125 C64.11083984 180.20703125 64.11083984 180.20703125 61.79296875 181.51953125 C60.51486328 182.26203125 60.51486328 182.26203125 59.2109375 183.01953125 C58.32277344 183.51453125 57.43460937 184.00953125 56.51953125 184.51953125 C54.77605737 185.51728679 53.03386116 186.51727835 51.29296875 187.51953125 C50.43799805 188.00808594 49.58302734 188.49664062 48.70214844 189 C45.38501994 190.97077203 42.20934063 193.1193628 39.04150391 195.3203125 C35.10589443 197.80830655 31.69824731 197.95872214 27.14453125 197.51953125 C24.08815767 196.17790615 21.36716948 194.41196352 18.58203125 192.58203125 C17.80279297 192.08711182 17.02355469 191.59219238 16.22070312 191.08227539 C14.62692351 190.06729799 13.03753099 189.0453983 11.45263672 188.01660156 C9.28839792 186.61284523 7.11240767 185.23025513 4.9296875 183.85546875 C-4.46194811 177.91305189 -4.46194811 177.91305189 -6.85546875 175.51953125 C-7.11273766 172.63244915 -7.11273766 172.63244915 -7.12289429 168.85881042 C-7.1274254 168.1664255 -7.13195651 167.47404058 -7.13662493 166.7606743 C-7.14933493 164.42916844 -7.14764435 162.0978942 -7.14599609 159.76635742 C-7.15197732 158.09931638 -7.15878192 156.43227812 -7.16635132 154.76524353 C-7.18406189 150.22796613 -7.18870887 145.69076411 -7.18998289 141.1534555 C-7.19187913 137.36866337 -7.19923365 133.58388891 -7.20632708 129.79910356 C-7.22262856 120.86988485 -7.22749451 111.94070649 -7.22607422 103.01147461 C-7.22487295 93.79559847 -7.24596772 84.57995659 -7.27756155 75.36413974 C-7.30370297 67.45749374 -7.31444238 59.55092433 -7.3131634 51.64423543 C-7.31265305 46.91952594 -7.3183761 42.19502442 -7.3395195 37.47035789 C-7.35886554 33.02568374 -7.35905141 28.58141669 -7.34448624 24.13672829 C-7.34239236 22.50530021 -7.34713342 20.8738469 -7.35920715 19.24246216 C-7.37462521 17.01489564 -7.36537605 14.78873876 -7.34994507 12.561203 C-7.3510346 11.31477115 -7.35212414 10.06833929 -7.35324669 8.78413677 C-6.63004363 4.04111283 -4.88707948 0.88916768 0 0 Z " fill="#019CDF" transform="translate(138.85546875,74.48046875)"/>
<path d="M0 0 C0.98613281 0.66128906 1.97226563 1.32257813 2.98828125 2.00390625 C3.55861084 2.38224609 4.12894043 2.76058594 4.71655273 3.15039062 C6.08130494 4.05781573 7.44274142 4.97023737 8.80175781 5.88623047 C11.77945887 7.88823698 14.77040663 9.86999233 17.76171875 11.8515625 C24.05245914 16.02443725 30.34247044 20.19816367 36.60070801 24.41970825 C37.76462249 25.20476761 38.92946378 25.98845414 40.09509277 26.77096558 C41.87216511 27.96640435 43.64372637 29.16961414 45.4140625 30.375 C46.45731689 31.08197021 47.50057129 31.78894043 48.57543945 32.51733398 C54.82171571 37.21365188 58.20436569 43.07487528 60.30078125 50.56640625 C60.69506689 53.93644892 60.68169926 57.26445246 60.64135742 60.65429688 C60.64201454 62.11908478 60.64201454 62.11908478 60.64268494 63.61346436 C60.64060763 66.81673713 60.61732639 70.01947577 60.59375 73.22265625 C60.58815029 75.45324416 60.58388196 77.68383578 60.58088684 79.91442871 C60.56946766 85.76703187 60.54002556 91.61940941 60.5067749 97.47192383 C60.47601093 103.4513036 60.46236799 109.43072004 60.44726562 115.41015625 C60.41515314 127.12900503 60.36399216 138.84768683 60.30078125 150.56640625 C57.30078125 151.56640625 57.30078125 151.56640625 55.2421875 150.58520508 C54.45714844 150.06982178 53.67210938 149.55443848 52.86328125 149.0234375 C51.97801758 148.45028809 51.09275391 147.87713867 50.18066406 147.28662109 C49.23030273 146.6570752 48.27994141 146.0275293 47.30078125 145.37890625 C45.29588805 144.07503614 43.29067422 142.77165892 41.28515625 141.46875 C40.27775391 140.80987793 39.27035156 140.15100586 38.23242188 139.47216797 C34.80287889 137.24273654 31.3437499 135.06439833 27.87573242 132.89550781 C20.685773 128.39866876 13.55799423 123.81255484 6.48828125 119.12890625 C5.75319336 118.64470215 5.01810547 118.16049805 4.26074219 117.66162109 C-7.49624787 109.81908132 -7.49624787 109.81908132 -10.51171875 103.87890625 C-10.91003906 103.11191406 -11.30835938 102.34492188 -11.71875 101.5546875 C-12.04230469 100.89855469 -12.36585937 100.24242187 -12.69921875 99.56640625 C-13.02921875 98.90640625 -13.35921875 98.24640625 -13.69921875 97.56640625 C-14.6786474 91.71485257 -14.84808203 85.83252527 -14.84448242 79.91308594 C-14.84784103 79.10050323 -14.85119965 78.28792053 -14.85466003 77.45071411 C-14.86406806 74.7965538 -14.86610731 72.14245714 -14.8671875 69.48828125 C-14.87040478 67.62982152 -14.8737692 65.77136204 -14.87727356 63.91290283 C-14.88323766 60.03307507 -14.88511603 56.15326951 -14.88452148 52.2734375 C-14.88441947 47.30472443 -14.89812422 42.336153 -14.91529369 37.3674736 C-14.92640901 33.53618719 -14.92844091 29.70493523 -14.92791176 25.87363434 C-14.92909055 24.04122678 -14.93350668 22.2088183 -14.94124413 20.3764267 C-14.95104399 17.81823206 -14.94816711 15.2603481 -14.94213867 12.70214844 C-14.94775818 11.94880219 -14.95337769 11.19545593 -14.95916748 10.41928101 C-14.93493003 6.37060763 -14.59889679 3.17316922 -12.69921875 -0.43359375 C-8.6283877 -3.63210386 -4.28622285 -2.27647437 0 0 Z " fill="#00D6FE" transform="translate(67.69921875,94.43359375)"/>
<path d="M0 0 C0.804375 -0.00128906 1.60875 -0.00257812 2.4375 -0.00390625 C3.283125 -0.00003906 4.12875 0.00382812 5 0.0078125 C6.2684375 0.00201172 6.2684375 0.00201172 7.5625 -0.00390625 C8.366875 -0.00261719 9.17125 -0.00132813 10 0 C10.7425 0.00112793 11.485 0.00225586 12.25 0.00341797 C14 0.1328125 14 0.1328125 15 1.1328125 C15.09535213 2.49889576 15.1218867 3.86986705 15.12025452 5.23927307 C15.12231651 6.56656433 15.12231651 6.56656433 15.12442017 7.92066956 C15.11902725 9.38801796 15.11902725 9.38801796 15.11352539 10.88500977 C15.11367142 11.9092807 15.11381744 12.93355164 15.1139679 13.98886108 C15.11326828 17.39233479 15.10547363 20.79575454 15.09765625 24.19921875 C15.09579224 26.55191518 15.09436826 28.904612 15.09336853 31.25730896 C15.08954199 37.46337955 15.07971055 43.6694269 15.06866455 49.87548828 C15.05845334 56.20279628 15.05387154 62.53010802 15.04882812 68.85742188 C15.0380884 81.28256232 15.02101036 93.70768548 15 106.1328125 C9.06 106.1328125 3.12 106.1328125 -3 106.1328125 C-3.95904856 102.29661825 -3.91892116 100.80849714 -3 97.1328125 C-3.79664063 97.75929688 -4.59328125 98.38578125 -5.4140625 99.03125 C-6.4840436 99.85720032 -7.55437487 100.68269715 -8.625 101.5078125 C-9.14707031 101.9203125 -9.66914062 102.3328125 -10.20703125 102.7578125 C-17.24126458 108.14204048 -25.06633175 109.58410558 -33.7734375 108.921875 C-44.89187138 107.27123916 -53.00166464 101.88412895 -60 93.1328125 C-67.01492233 81.59488673 -67.9656 69.28941982 -66 56.1328125 C-62.92629958 44.45912126 -56.22122373 35.92724578 -45.91015625 29.9140625 C-37.74352351 25.77905858 -28.33686165 25.127136 -19.4609375 27.1953125 C-13.96476891 29.28909101 -9.13809614 32.99471636 -5 37.1328125 C-5.00523682 36.04750244 -5.01047363 34.96219238 -5.01586914 33.84399414 C-5.03391836 29.83163268 -5.04543171 25.81927483 -5.05493164 21.80688477 C-5.05997204 20.06762082 -5.0668043 18.32836114 -5.07543945 16.58911133 C-5.08751792 14.09455313 -5.09323108 11.60005077 -5.09765625 9.10546875 C-5.10281754 8.32317398 -5.10797882 7.54087921 -5.11329651 6.73487854 C-5.11349226 4.86714136 -5.06199694 2.99952046 -5 1.1328125 C-3.4779041 -0.3892834 -2.11789918 0.00321729 0 0 Z M-42.4375 51.3203125 C-46.79248029 57.08171702 -48.88238136 63.9477071 -48 71.1328125 C-45.78450606 78.34736968 -43.06393556 83.72077812 -37.0625 88.4453125 C-31.73200749 91.24238814 -25.82251746 90.92935545 -20 90.1328125 C-13.88245716 88.1863216 -9.97738477 84.85854249 -6.93359375 79.234375 C-4.05980615 72.76534684 -3.42429674 67.08140556 -5 60.1328125 C-7.50370661 53.93315803 -10.91165668 49.07482907 -16.95703125 45.9296875 C-26.0617049 42.37834252 -35.64711041 44.12752946 -42.4375 51.3203125 Z " fill="#242021" transform="translate(617,112.8671875)"/>
<path d="M0 0 C2.33984375 2.703125 2.33984375 2.703125 4 5 C4.09087891 4.04287109 4.09087891 4.04287109 4.18359375 3.06640625 C4.26738281 2.24011719 4.35117187 1.41382813 4.4375 0.5625 C4.51871094 -0.26121094 4.59992187 -1.08492187 4.68359375 -1.93359375 C5 -4 5 -4 6 -5 C8.65653443 -5.10002455 11.28129272 -5.13877463 13.9375 -5.125 C14.67935547 -5.12886719 15.42121094 -5.13273438 16.18554688 -5.13671875 C21.74672998 -5.12663501 21.74672998 -5.12663501 24 -4 C24 21.41 24 46.82 24 73 C17.73 73 11.46 73 5 73 C4.505 69.04 4.505 69.04 4 65 C3.05125 65.9075 2.1025 66.815 1.125 67.75 C-5.72936135 73.58379246 -14.05016062 76.12546504 -23 76 C-34.02590888 74.91081447 -42.58428213 70.21074862 -50 62 C-57.64363667 50.80345758 -59.24847954 39.22139835 -58 26 C-55.70351578 14.46538609 -49.65136012 4.768258 -40 -2 C-26.98279875 -9.27106827 -12.32414642 -8.5046018 0 0 Z M-35.625 21.00390625 C-39.58445389 26.75186346 -39.89131467 33.21865749 -39 40 C-36.54373104 47.44260036 -32.84406849 52.03445916 -26.20703125 56.09765625 C-20.88210728 58.27474906 -13.84996056 58.08271657 -8.51171875 56.0546875 C-2.34826593 52.36358016 2.17798164 47.05041888 4 40 C4.96901043 31.12176934 3.41155139 24.79355551 -2.1875 17.75 C-6.68185385 12.86771245 -10.97303083 11.38525062 -17.4375 10.5625 C-25.36086509 11.53554484 -30.68072045 14.76633136 -35.625 21.00390625 Z " fill="#231F20" transform="translate(824,146)"/>
<path d="M0 0 C0.94875 0.886875 1.8975 1.77375 2.875 2.6875 C2.689375 1.40875 2.50375 0.13 2.3125 -1.1875 C1.75 -5.0625 1.75 -5.0625 2.875 -7.3125 C5.68756281 -7.33934312 8.49987241 -7.35926188 11.3125 -7.375 C12.11494141 -7.38337891 12.91738281 -7.39175781 13.74414062 -7.40039062 C15.78795221 -7.4090143 17.83183902 -7.3647815 19.875 -7.3125 C21.56003699 -5.62746301 20.99465983 -3.54990116 20.99942017 -1.30155945 C20.99402725 -0.22694206 20.99402725 -0.22694206 20.98852539 0.86938477 C20.98867142 1.62055573 20.98881744 2.37172668 20.9889679 3.1456604 C20.98826863 5.64010459 20.98047564 8.13447503 20.97265625 10.62890625 C20.97079212 12.35383564 20.96936819 14.07876557 20.96836853 15.80369568 C20.96454297 20.35262503 20.95471238 24.90152267 20.94366455 29.45043945 C20.93345124 34.08870006 20.92887108 38.72696577 20.92382812 43.36523438 C20.91309013 52.47267246 20.89549304 61.58007863 20.875 70.6875 C14.935 70.6875 8.995 70.6875 2.875 70.6875 C2.545 69.0375 2.215 67.3875 1.875 65.6875 C1.545 64.6975 1.215 63.7075 0.875 62.6875 C0.47410156 63.07421875 0.07320312 63.4609375 -0.33984375 63.859375 C-7.9515406 70.83244876 -15.76147418 73.81923973 -26.125 73.6875 C-35.22028219 72.81295364 -43.7699045 69.43978897 -50.125 62.6875 C-58.53065014 52.28550795 -62.06202196 39.92506472 -61.125 26.6875 C-59.29382584 15.3688251 -54.59429674 4.23065919 -45.140625 -2.78515625 C-30.44049398 -12.26287231 -13.46075831 -11.36088001 0 0 Z M-36.5625 15.875 C-41.4801566 22.45515982 -42.77182174 28.95964204 -41.6875 37.046875 C-40.1368063 44.32652041 -37.07822582 48.29626415 -31.02734375 52.55859375 C-25.83108265 55.6422066 -19.96181883 55.31106077 -14.125 54.6875 C-7.82783347 52.67315973 -4.19477782 49.25647848 -1 43.5546875 C2.04942408 37.04743433 2.09510553 28.8180036 0.07421875 21.9765625 C-2.83763268 16.1128342 -7.18057554 12.35681162 -13.125 9.6875 C-21.72247654 7.14111364 -30.35949411 9.30440858 -36.5625 15.875 Z " fill="#231F20" transform="translate(515.125,148.3125)"/>
<path d="M0 0 C8.26877792 10.49699598 9 20.68957907 9 34 C-10.47 34 -29.94 34 -50 34 C-45.93343278 44.46755617 -45.93343278 44.46755617 -37.75 50.3125 C-32.28316118 51.67920971 -27.02999415 51.68943198 -21.6875 49.875 C-18.79272068 48.10827963 -18.79272068 48.10827963 -17.0078125 44.90625 C-15.25510777 42.75364524 -14.38096395 42.07838183 -11.62915039 41.51220703 C-8.79402395 41.40957571 -6.02045692 41.47659796 -3.1875 41.625 C-1.71893555 41.66560547 -1.71893555 41.66560547 -0.22070312 41.70703125 C2.18846621 41.77754352 4.59308819 41.87601432 7 42 C6.13909702 50.03116345 1.51420189 55.88565121 -4.4375 61.16015625 C-14.33636473 68.44510201 -25.35510056 71.18286593 -37.5625 69.375 C-47.66187233 67.20262789 -56.52855474 62.022763 -62.72265625 53.6796875 C-69.79563082 42.59232196 -71.68916834 31.20539203 -69.53125 18.16796875 C-66.76846504 7.7252994 -60.80734037 -0.78792607 -52 -7 C-34.50237161 -17.02000942 -14.25780397 -14.25780397 0 0 Z M-46.3671875 11.59765625 C-47.8880307 13.73208102 -49 15.32855103 -49 18 C-45.88045872 19.55977064 -42.57040616 19.12104126 -39.1484375 19.09765625 C-38.37440582 19.0962413 -37.60037415 19.09482635 -36.80288696 19.09336853 C-34.32688558 19.08776403 -31.85097412 19.07521083 -29.375 19.0625 C-27.69791797 19.05748558 -26.02083453 19.05292257 -24.34375 19.04882812 C-20.22913194 19.03779315 -16.11458122 19.02052554 -12 19 C-11.67 18.01 -11.34 17.02 -11 16 C-13.67662376 10.64675248 -17.31914062 7.06258894 -23 5 C-32.22405273 3.66692012 -40.08726048 4.25911296 -46.3671875 11.59765625 Z " fill="#231F20" transform="translate(1018,152)"/>
<path d="M0 0 C10.88707562 0.48217817 19.93765927 3.42238094 27.9765625 10.9609375 C33.31593676 16.83639351 37.9765625 22.762728 37.9765625 30.9609375 C20.72782905 32.19055018 20.72782905 32.19055018 16.58984375 29.28515625 C15.22154531 27.23458297 14.11209014 25.14564086 12.9765625 22.9609375 C8.20595931 19.59983071 2.75080367 18.64014632 -3.0234375 18.9609375 C-6.22562989 19.97085971 -9.0623395 21.3986404 -12.0234375 22.9609375 C-13.0134375 23.2909375 -14.0034375 23.6209375 -15.0234375 23.9609375 C-16.12512734 25.65862984 -16.12512734 25.65862984 -17.0234375 27.9609375 C-17.5596875 28.9509375 -18.0959375 29.9409375 -18.6484375 30.9609375 C-21.13949913 36.95746215 -21.09644994 43.65018971 -19.109375 49.78125 C-16.63016244 55.13954811 -13.914554 58.66475029 -9.0234375 61.9609375 C-3.64094879 63.7551004 2.66116386 63.89880703 8.14453125 62.34765625 C11.84055044 60.49556716 13.33191642 58.41071789 15.0234375 54.8359375 C16.59559686 52.24115148 17.30016648 51.15425571 20.25219727 50.31054688 C22.97038334 50.17308601 25.5750175 50.26145999 28.2890625 50.4609375 C29.22041016 50.49703125 30.15175781 50.533125 31.11132812 50.5703125 C33.40398057 50.66437004 35.68813341 50.79554721 37.9765625 50.9609375 C36.01984012 61.34200006 32.17454069 68.90795978 23.6015625 75.4609375 C14.11077702 81.78381774 3.88211775 83.9978899 -7.4609375 82.3984375 C-18.7179777 79.97013311 -28.03298888 74.24877934 -34.55078125 64.73046875 C-38.91954344 57.37321996 -40.40364771 50.04391015 -40.3359375 41.5859375 C-40.33029785 40.84279297 -40.3246582 40.09964844 -40.31884766 39.33398438 C-40.09743385 29.27609778 -37.2435015 21.88006886 -31.0234375 13.9609375 C-30.28673828 13.01734375 -30.28673828 13.01734375 -29.53515625 12.0546875 C-23.93736521 5.72071054 -15.35313342 1.42056272 -7.0234375 0.0234375 C-4.67712262 -0.10526332 -2.35053182 -0.03036863 0 0 Z " fill="#242021" transform="translate(902.0234375,139.0390625)"/>
<path d="M0 0 C26.4 0 52.8 0 80 0 C80 5.94 80 11.88 80 18 C70.1 18 60.2 18 50 18 C50 45.72 50 73.44 50 102 C43.4 102 36.8 102 30 102 C30 74.28 30 46.56 30 18 C20.1 18 10.2 18 0 18 C0 12.06 0 6.12 0 0 Z " fill="#242022" transform="translate(309,117)"/>
<path d="M0 0 C0.804375 -0.00128906 1.60875 -0.00257812 2.4375 -0.00390625 C3.283125 -0.00003906 4.12875 0.00382812 5 0.0078125 C6.2684375 0.00201172 6.2684375 0.00201172 7.5625 -0.00390625 C8.366875 -0.00261719 9.17125 -0.00132813 10 0 C10.7425 0.00112793 11.485 0.00225586 12.25 0.00341797 C14 0.1328125 14 0.1328125 15 1.1328125 C15.08685603 2.69453995 15.10702219 4.26010594 15.09765625 5.82421875 C15.09443359 6.76845703 15.09121094 7.71269531 15.08789062 8.68554688 C15.07532227 10.17538086 15.07532227 10.17538086 15.0625 11.6953125 C15.05798828 12.69240234 15.05347656 13.68949219 15.04882812 14.71679688 C15.03700007 17.18886099 15.02051849 19.66080768 15 22.1328125 C15.62567871 22.12233887 16.25135742 22.11186523 16.89599609 22.10107422 C19.7222901 22.05958059 22.54852011 22.03350777 25.375 22.0078125 C26.35984375 21.99105469 27.3446875 21.97429687 28.359375 21.95703125 C29.77089844 21.94736328 29.77089844 21.94736328 31.2109375 21.9375 C32.08024902 21.92702637 32.94956055 21.91655273 33.84521484 21.90576172 C36 22.1328125 36 22.1328125 38 24.1328125 C38.17163731 26.69573567 38.23264558 29.13627107 38.1875 31.6953125 C38.18685547 32.39333984 38.18621094 33.09136719 38.18554688 33.81054688 C38.14031158 38.99250092 38.14031158 38.99250092 37 40.1328125 C35.36527118 40.21981592 33.72685945 40.23982313 32.08984375 40.23046875 C31.10048828 40.22724609 30.11113281 40.22402344 29.09179688 40.22070312 C28.05087891 40.21232422 27.00996094 40.20394531 25.9375 40.1953125 C24.89271484 40.19080078 23.84792969 40.18628906 22.77148438 40.18164062 C20.1809334 40.16981163 17.59049441 40.15332939 15 40.1328125 C15.06898285 45.31109936 15.15700057 50.4885869 15.26245117 55.66625977 C15.29564654 57.42658605 15.32369524 59.18701738 15.34643555 60.94750977 C15.3800812 63.48238775 15.4324006 66.01630773 15.48828125 68.55078125 C15.49467117 69.33430466 15.5010611 70.11782806 15.50764465 70.9250946 C15.62883364 75.45810523 16.0935656 78.57574141 19 82.1328125 C23.17213619 83.52352456 27.3678057 83.51953323 31.7265625 83.73828125 C36.89840515 84.03121765 36.89840515 84.03121765 38 85.1328125 C38.07313567 87.66330652 38.09247527 90.16586087 38.0625 92.6953125 C38.05798828 93.40623047 38.05347656 94.11714844 38.04882812 94.84960938 C38.03700864 96.61071263 38.01907263 98.37177286 38 100.1328125 C34.04206705 100.27982144 30.08484908 100.3674503 26.125 100.4453125 C25.01640625 100.48720703 23.9078125 100.52910156 22.765625 100.57226562 C13.95824174 100.70178597 7.07398734 98.99787741 0.5625 92.8203125 C-4.10572273 84.7909694 -5.16055072 76.89030263 -5.09765625 67.671875 C-5.0962413 66.88130707 -5.09482635 66.09073914 -5.09336853 65.2762146 C-5.08780504 62.77004084 -5.07525944 60.26395892 -5.0625 57.7578125 C-5.05748028 56.05078255 -5.0529182 54.34375118 -5.04882812 52.63671875 C-5.03784759 48.46871502 -5.02060839 44.30077929 -5 40.1328125 C-6.60681641 40.15021484 -6.60681641 40.15021484 -8.24609375 40.16796875 C-9.64322743 40.17734549 -11.04036299 40.18644581 -12.4375 40.1953125 C-13.14455078 40.20369141 -13.85160156 40.21207031 -14.58007812 40.22070312 C-16.38693559 40.22934838 -18.19387603 40.18501261 -20 40.1328125 C-21.98119355 38.15161895 -21.18500411 34.39836186 -21.1875 31.6953125 C-21.19974609 31.00115234 -21.21199219 30.30699219 -21.22460938 29.59179688 C-21.22989842 27.77060349 -21.12169207 25.9499433 -21 24.1328125 C-19 22.1328125 -19 22.1328125 -15.7421875 21.9375 C-14.46601562 21.96070313 -13.18984375 21.98390625 -11.875 22.0078125 C-9.95300781 22.03488281 -9.95300781 22.03488281 -7.9921875 22.0625 C-6.51105469 22.09730469 -6.51105469 22.09730469 -5 22.1328125 C-5.00523682 21.50189697 -5.01047363 20.87098145 -5.01586914 20.22094727 C-5.03657826 17.37907903 -5.04964066 14.53722662 -5.0625 11.6953125 C-5.07087891 10.70208984 -5.07925781 9.70886719 -5.08789062 8.68554688 C-5.09111328 7.74130859 -5.09433594 6.79707031 -5.09765625 5.82421875 C-5.10289307 4.94967041 -5.10812988 4.07512207 -5.11352539 3.17407227 C-4.91001656 -0.48514775 -3.22095226 0.00489294 0 0 Z " fill="#252122" transform="translate(662,118.8671875)"/>
<path d="M0 0 C1.1127832 -0.01836914 1.1127832 -0.01836914 2.24804688 -0.03710938 C4.18763629 -0.04238478 6.1267371 0.06561098 8.0625 0.1875 C8.7225 0.8475 9.3825 1.5075 10.0625 2.1875 C10.02962417 4.91619407 9.49852229 7.4841618 9.0625 10.1875 C9.66578125 9.70539063 10.2690625 9.22328125 10.890625 8.7265625 C11.68984375 8.09492188 12.4890625 7.46328125 13.3125 6.8125 C14.10140625 6.18601563 14.8903125 5.55953125 15.703125 4.9140625 C22.25245712 0.12133932 29.17078452 -0.08462812 37.0625 0.1875 C38.88366003 2.00866003 38.1948508 4.49421764 38.19921875 6.9140625 C38.19535156 7.66429687 38.19148438 8.41453125 38.1875 9.1875 C38.19330078 10.31285156 38.19330078 10.31285156 38.19921875 11.4609375 C38.18911053 17.06088947 38.18911053 17.06088947 37.0625 18.1875 C35.02251149 18.32054273 32.98019989 18.41857119 30.9375 18.5 C25.03567436 18.95199978 21.59280797 19.31786194 17.0625 23.1875 C11.42549466 31.52495555 10.89103291 40.05174113 11 49.80859375 C11.00378662 50.59396011 11.00757324 51.37932648 11.01147461 52.18849182 C11.0235777 54.66738691 11.04223108 57.1461591 11.0625 59.625 C11.08900718 62.91536095 11.10899886 66.20566695 11.125 69.49609375 C11.13329834 70.25329208 11.14159668 71.01049042 11.15014648 71.79063416 C11.1586995 73.58980632 11.11586106 75.38909897 11.0625 77.1875 C10.0625 78.1875 10.0625 78.1875 8.20483398 78.30102539 C7.01869507 78.29317017 7.01869507 78.29317017 5.80859375 78.28515625 C4.95458984 78.28193359 4.10058594 78.27871094 3.22070312 78.27539062 C2.32287109 78.26701172 1.42503906 78.25863281 0.5 78.25 C-0.40169922 78.24548828 -1.30339844 78.24097656 -2.23242188 78.23632812 C-4.46751314 78.22450225 -6.70247437 78.2080222 -8.9375 78.1875 C-8.9606241 68.16522237 -8.97841543 58.14295103 -8.98931217 48.1206522 C-8.99454085 43.46738814 -9.00163823 38.81414226 -9.01293945 34.16088867 C-9.02376886 29.67405454 -9.02977695 25.18723796 -9.03237724 20.70039177 C-9.0342314 18.98469707 -9.03785182 17.26900338 -9.04323006 15.55331612 C-9.05044121 13.15865087 -9.05149091 10.76405904 -9.05102539 8.36938477 C-9.05462067 7.65297318 -9.05821594 6.93656158 -9.06192017 6.19844055 C-9.04650219 -1.08358937 -6.50235795 0.00562002 0 0 Z " fill="#242021" transform="translate(409.9375,140.8125)"/>
<path d="M0 0 C0.79792969 0.00386719 1.59585938 0.00773438 2.41796875 0.01171875 C3.21589844 0.00785156 4.01382813 0.00398437 4.8359375 0 C10.79136108 0.01011108 10.79136108 0.01011108 11.91796875 1.13671875 C12.1498974 2.65141323 12.33012113 4.17426437 12.48046875 5.69921875 C12.60615234 6.93865234 12.60615234 6.93865234 12.734375 8.203125 C12.79496094 8.84121094 12.85554687 9.47929687 12.91796875 10.13671875 C13.41296875 9.39421875 13.90796875 8.65171875 14.41796875 7.88671875 C19.19676312 2.63004494 24.88215669 0.63927675 31.91796875 0.13671875 C34.6090066 0.03062048 37.22053193 0.04370369 39.91796875 0.13671875 C41.73912878 1.95787878 41.05031955 4.44343639 41.0546875 6.86328125 C41.05082031 7.61351562 41.04695312 8.36375 41.04296875 9.13671875 C41.04876953 10.26207031 41.04876953 10.26207031 41.0546875 11.41015625 C41.04457928 17.01010822 41.04457928 17.01010822 39.91796875 18.13671875 C37.85782274 18.29587166 35.79443021 18.41376804 33.73046875 18.51171875 C27.42461831 18.96706462 23.36125555 19.76324015 18.73046875 24.26171875 C14.3810011 31.16087433 13.46498021 38.18624327 13.40625 46.203125 C13.3882988 47.12262436 13.3703476 48.04212372 13.35185242 48.98948669 C13.29817614 51.89268567 13.26399194 54.79572436 13.23046875 57.69921875 C13.19725791 59.68166273 13.16276483 61.66408567 13.12695312 63.64648438 C13.04247475 68.47644599 12.97546163 73.30636361 12.91796875 78.13671875 C9.08986054 79.41275482 5.68321768 78.99955862 1.73046875 78.69921875 C0.98087891 78.64701172 0.23128906 78.59480469 -0.54101562 78.54101562 C-2.38840207 78.41158091 -4.23527496 78.27485357 -6.08203125 78.13671875 C-7.2604417 74.41451644 -7.20902 70.88282102 -7.21142578 66.99731445 C-7.2131781 66.28632599 -7.21493042 65.57533752 -7.21673584 64.84280396 C-7.22112739 62.49934428 -7.21822681 60.1559604 -7.21484375 57.8125 C-7.21551734 56.18393438 -7.21648783 54.55536886 -7.21774292 52.92680359 C-7.21921604 49.51816854 -7.21707686 46.10955973 -7.21240234 42.70092773 C-7.20669168 38.32248261 -7.20999492 33.94409861 -7.21597481 29.56565571 C-7.21957923 26.20547521 -7.21844262 22.84530933 -7.21584702 19.4851284 C-7.21517812 17.86991557 -7.21600487 16.25470143 -7.21832657 14.63949013 C-7.22085262 12.38893713 -7.21701385 10.1384849 -7.21142578 7.88793945 C-7.21063019 6.60538773 -7.20983459 5.322836 -7.20901489 4.00141907 C-6.98039367 -1.15618451 -4.5865928 0.00778708 0 0 Z " fill="#231F20" transform="translate(719.08203125,140.86328125)"/>
<path d="M0 0 C1.11858398 0.00580078 1.11858398 0.00580078 2.25976562 0.01171875 C3.37254883 0.00591797 3.37254883 0.00591797 4.5078125 0 C10.06899561 0.01008374 10.06899561 0.01008374 12.32226562 1.13671875 C12.32226562 26.54671875 12.32226562 51.95671875 12.32226562 78.13671875 C6.05226563 78.13671875 -0.21773437 78.13671875 -6.67773438 78.13671875 C-7.00773438 75.49671875 -7.33773437 72.85671875 -7.67773438 70.13671875 C-8.99773438 71.45671875 -10.31773437 72.77671875 -11.67773438 74.13671875 C-12.33773437 73.80671875 -12.99773438 73.47671875 -13.67773438 73.13671875 C-13.2678125 72.73839844 -12.85789062 72.34007812 -12.43554688 71.9296875 C-11.89671875 71.39988281 -11.35789062 70.87007813 -10.80273438 70.32421875 C-10.2690625 69.80214844 -9.73539063 69.28007812 -9.18554688 68.7421875 C-7.46996876 67.00411971 -7.46996876 67.00411971 -5.67773438 64.13671875 C-4.67773438 65.13671875 -4.67773438 65.13671875 -4.58007812 67.640625 C-4.61263021 70.47265625 -4.64518229 73.3046875 -4.67773438 76.13671875 C0.27226563 76.46671875 5.22226562 76.79671875 10.32226562 77.13671875 C10.32226562 52.38671875 10.32226562 27.63671875 10.32226562 2.13671875 C5.37226562 2.13671875 0.42226563 2.13671875 -4.67773438 2.13671875 C-4.67773438 5.10671875 -4.67773438 8.07671875 -4.67773438 11.13671875 C-6.67773438 9.13671875 -6.67773438 9.13671875 -6.90820312 7.2265625 C-6.76417948 0.01228734 -6.76417948 0.01228734 0 0 Z " fill="#2F2C2D" transform="translate(835.677734375,140.86328125)"/>
<path d="M0 0 C26.4 0 52.8 0 80 0 C80 5.28 80 10.56 80 16 C79.67 16 79.34 16 79 16 C78.67 11.38 78.34 6.76 78 2 C52.92 2 27.84 2 2 2 C2 6.62 2 11.24 2 16 C5.3 16.33 8.6 16.66 12 17 C12 17.33 12 17.66 12 18 C8.04 18 4.08 18 0 18 C0 12.06 0 6.12 0 0 Z " fill="#332F32" transform="translate(309,117)"/>
<path d="M0 0 C2.81256281 -0.02684312 5.62487241 -0.04676188 8.4375 -0.0625 C9.23994141 -0.07087891 10.04238281 -0.07925781 10.86914062 -0.08789062 C12.91295221 -0.0965143 14.95683902 -0.0522815 17 0 C18.68503699 1.68503699 18.11965983 3.76259884 18.12442017 6.01094055 C18.12082489 6.72735214 18.11722961 7.44376373 18.11352539 8.18188477 C18.11367142 8.93305573 18.11381744 9.68422668 18.1139679 10.4581604 C18.11326863 12.95260459 18.10547564 15.44697503 18.09765625 17.94140625 C18.09579212 19.66633564 18.09436819 21.39126557 18.09336853 23.11619568 C18.08954297 27.66512503 18.07971238 32.21402267 18.06866455 36.76293945 C18.05845124 41.40120006 18.05387108 46.03946577 18.04882812 50.67773438 C18.03809014 59.78517022 18.02101327 68.89258248 18 78 C16.35 78 14.7 78 13 78 C14.485 77.505 14.485 77.505 16 77 C16 52.25 16 27.5 16 2 C10.72 2 5.44 2 0 2 C0 1.34 0 0.68 0 0 Z " fill="#333031" transform="translate(518,141)"/>
<path d="M0 0 C0.804375 -0.00128906 1.60875 -0.00257812 2.4375 -0.00390625 C3.283125 -0.00003906 4.12875 0.00382812 5 0.0078125 C6.2684375 0.00201172 6.2684375 0.00201172 7.5625 -0.00390625 C8.366875 -0.00261719 9.17125 -0.00132813 10 0 C10.7425 0.00112793 11.485 0.00225586 12.25 0.00341797 C14 0.1328125 14 0.1328125 15 1.1328125 C15.09311889 2.63699989 15.11746028 4.14552606 15.11352539 5.65258789 C15.11344986 6.61350845 15.11337433 7.57442902 15.11329651 8.56446838 C15.10813522 9.6092485 15.10297394 10.65402863 15.09765625 11.73046875 C15.0962413 12.79446396 15.09482635 13.85845917 15.09336853 14.95469666 C15.08775064 18.36826333 15.07519511 21.7817655 15.0625 25.1953125 C15.05748731 27.50325426 15.052924 29.81119705 15.04882812 32.11914062 C15.0377754 37.79038676 15.02101987 43.46159503 15 49.1328125 C14.67 49.1328125 14.34 49.1328125 14 49.1328125 C12.807629 39.40430184 12.88485699 29.72598633 12.9375 19.9453125 C12.94252706 18.30924617 12.94708783 16.67317833 12.95117188 15.03710938 C12.96121787 11.06894202 12.98080947 7.10098774 13 3.1328125 C7.72 2.8028125 2.44 2.4728125 -3 2.1328125 C-3 3.7828125 -3 5.4328125 -3 7.1328125 C-3.66 6.8028125 -4.32 6.4728125 -5 6.1328125 C-5.042721 4.46669345 -5.04063832 2.79898365 -5 1.1328125 C-3.4779041 -0.3892834 -2.11789918 0.00321729 0 0 Z " fill="#2A2526" transform="translate(617,112.8671875)"/>
<path d="M0 0 C2.81256281 -0.02684312 5.62487241 -0.04676188 8.4375 -0.0625 C9.23994141 -0.07087891 10.04238281 -0.07925781 10.86914062 -0.08789062 C12.91295221 -0.0965143 14.95683902 -0.0522815 17 0 C18.58272601 1.58272601 18.34735747 3.38034003 18.5625 5.5625 C18.68818359 6.80193359 18.68818359 6.80193359 18.81640625 8.06640625 C18.87699219 8.70449219 18.93757812 9.34257812 19 10 C19.495 9.2575 19.99 8.515 20.5 7.75 C25.27879437 2.49332619 30.96418794 0.502558 38 0 C40.67299324 -0.06128556 43.32540295 -0.04692276 46 0 C46 0.66 46 1.32 46 2 C45.04738281 2.06058594 44.09476563 2.12117187 43.11328125 2.18359375 C41.85902344 2.26738281 40.60476563 2.35117188 39.3125 2.4375 C37.45044922 2.55931641 37.45044922 2.55931641 35.55078125 2.68359375 C32.61819663 2.94491317 29.86558383 3.34798379 27 4 C27 4.66 27 5.32 27 6 C26.443125 6.185625 25.88625 6.37125 25.3125 6.5625 C22.35466557 8.40115383 20.94698833 10.66246352 19.05078125 13.5390625 C18.70402344 14.02117187 18.35726562 14.50328125 18 15 C17.67 15 17.34 15 17 15 C17 10.71 17 6.42 17 2 C11.72 2 6.44 2 1 2 C1 2.66 1 3.32 1 4 C0.34 4 -0.32 4 -1 4 C-0.67 2.68 -0.34 1.36 0 0 Z " fill="#322D2E" transform="translate(713,141)"/>
<path d="M0 0 C0.74886475 0.00523682 1.49772949 0.01047363 2.26928711 0.01586914 C3.07817383 0.0190918 3.88706055 0.02231445 4.72045898 0.02563477 C5.5705957 0.03401367 6.42073242 0.04239258 7.29663086 0.05102539 C8.15063477 0.05553711 9.00463867 0.06004883 9.88452148 0.06469727 C12.00108749 0.07652166 14.11761771 0.0944577 16.23413086 0.11352539 C17.46552486 3.80770741 16.8784585 6.31915149 16.23413086 10.11352539 C15.90413086 10.11352539 15.57413086 10.11352539 15.23413086 10.11352539 C14.90413086 7.47352539 14.57413086 4.83352539 14.23413086 2.11352539 C9.28413086 2.11352539 4.33413086 2.11352539 -0.76586914 2.11352539 C-0.76586914 8.05352539 -0.76586914 13.99352539 -0.76586914 20.11352539 C-1.42586914 20.44352539 -2.08586914 20.77352539 -2.76586914 21.11352539 C-2.79475061 17.80104352 -2.81262713 14.48859372 -2.82836914 11.17602539 C-2.83674805 10.23049805 -2.84512695 9.2849707 -2.85375977 8.31079102 C-2.85698242 7.41166992 -2.86020508 6.51254883 -2.86352539 5.58618164 C-2.86876221 4.75352783 -2.87399902 3.92087402 -2.87939453 3.06298828 C-2.73249873 0.54048725 -2.53044965 0.16267926 0 0 Z " fill="#322E2F" transform="translate(659.765869140625,118.886474609375)"/>
<path d="M0 0 C0.33 0 0.66 0 1 0 C1.33 6.6 1.66 13.2 2 20 C-4.27 20 -10.54 20 -17 20 C-17.33 17.36 -17.66 14.72 -18 12 C-19.32 13.32 -20.64 14.64 -22 16 C-22.66 15.67 -23.32 15.34 -24 15 C-23.59007812 14.60167969 -23.18015625 14.20335937 -22.7578125 13.79296875 C-22.21898437 13.26316406 -21.68015625 12.73335937 -21.125 12.1875 C-20.59132813 11.66542969 -20.05765625 11.14335937 -19.5078125 10.60546875 C-17.79223439 8.86740096 -17.79223439 8.86740096 -16 6 C-15 7 -15 7 -14.90234375 9.50390625 C-14.93489583 12.3359375 -14.96744792 15.16796875 -15 18 C-10.05 18.33 -5.1 18.66 0 19 C0 12.73 0 6.46 0 0 Z " fill="#3A3638" transform="translate(846,199)"/>
<path d="M0 0 C0.804375 -0.00128906 1.60875 -0.00257812 2.4375 -0.00390625 C3.283125 -0.00003906 4.12875 0.00382812 5 0.0078125 C6.2684375 0.00201172 6.2684375 0.00201172 7.5625 -0.00390625 C8.366875 -0.00261719 9.17125 -0.00132813 10 0 C10.7425 0.00112793 11.485 0.00225586 12.25 0.00341797 C14 0.1328125 14 0.1328125 15 1.1328125 C15.04063832 2.79898365 15.042721 4.46669345 15 6.1328125 C14.01 6.6278125 14.01 6.6278125 13 7.1328125 C13 5.8128125 13 4.4928125 13 3.1328125 C7.72 2.8028125 2.44 2.4728125 -3 2.1328125 C-3 3.7828125 -3 5.4328125 -3 7.1328125 C-3.66 6.8028125 -4.32 6.4728125 -5 6.1328125 C-5.042721 4.46669345 -5.04063832 2.79898365 -5 1.1328125 C-3.4779041 -0.3892834 -2.11789918 0.00321729 0 0 Z " fill="#312E2F" transform="translate(617,112.8671875)"/>
<path d="M0 0 C1 1 1 1 1.09765625 3.94140625 C1.08605469 5.13636719 1.07445312 6.33132812 1.0625 7.5625 C1.05347656 8.76003906 1.04445313 9.95757812 1.03515625 11.19140625 C1.02355469 12.11824219 1.01195312 13.04507813 1 14 C0.67 14 0.34 14 0 14 C0 10.04 0 6.08 0 2 C-10.8077088 2.11051346 -10.8077088 2.11051346 -20 7 C-20.99 6.67 -21.98 6.34 -23 6 C-15.45130226 0.68650107 -9.12959021 -0.31481346 0 0 Z " fill="#363233" transform="translate(447,141)"/>
<path d="M0 0 C6.27 0 12.54 0 19 0 C19 0.33 19 0.66 19 1 C13.06 1 7.12 1 1 1 C0.67 2.65 0.34 4.3 0 6 C-2.02773042 9.18643352 -3.08697102 10.73024144 -6.75 11.8125 C-7.4925 11.874375 -8.235 11.93625 -9 12 C-8.2575 11.319375 -7.515 10.63875 -6.75 9.9375 C-3.41440804 6.60134392 -3.41440804 6.60134392 0 0 Z " fill="#302D2E" transform="translate(920,190)"/>
<path d="M0 0 C4.18344837 3.50830973 8.18711815 7.08406729 12 11 C12.763125 11.763125 13.52625 12.52625 14.3125 13.3125 C14.869375 13.869375 15.42625 14.42625 16 15 C9.38634603 13.13990982 3.73376866 7.63543966 0 2 C0 1.34 0 0.68 0 0 Z " fill="#2D292A" transform="translate(868,202)"/>
<path d="M0 0 C5.94 0 11.88 0 18 0 C16.875 6.75 16.875 6.75 14 9 C14.875 3.125 14.875 3.125 16 2 C10.72 1.67 5.44 1.34 0 1 C0 0.67 0 0.34 0 0 Z " fill="#2E2A2B" transform="translate(1007,194)"/>
<path d="M0 0 C0.66 0.33 1.32 0.66 2 1 C2 4.63 2 8.26 2 12 C1.67 12 1.34 12 1 12 C1 9.69 1 7.38 1 5 C-1.97 7.475 -1.97 7.475 -5 10 C-5.66 9.67 -6.32 9.34 -7 9 C-6.57847656 8.60167969 -6.15695312 8.20335937 -5.72265625 7.79296875 C-5.17480469 7.26316406 -4.62695312 6.73335937 -4.0625 6.1875 C-3.51722656 5.66542969 -2.97195313 5.14335937 -2.41015625 4.60546875 C-0.76480908 2.94187802 -0.76480908 2.94187802 0 0 Z " fill="#2F2C2C" transform="translate(829,205)"/>
<path d="M0 0 C0.66 0 1.32 0 2 0 C3.3440093 1.99284138 4.67541292 3.99419671 6 6 C7.6292274 7.70328319 9.28641357 9.38161281 11 11 C6.7273343 10.52525937 4.726198 8.15665032 2 5 C0.6875 2.1875 0.6875 2.1875 0 0 Z " fill="#332F2F" transform="translate(882,191)"/>
<path d="M0 0 C1.69915471 1.5446861 2.89726993 2.77986413 3.875 4.875 C5.41704089 7.7877439 7.62277097 9.74788829 10 12 C5.57883696 10.64908907 3.51923342 8.86882275 1 5 C0.25 2.1875 0.25 2.1875 0 0 Z " fill="#2F2B2B" transform="translate(660,204)"/>
<path d="M0 0 C2.18993607 2.18993607 2.72197989 3.5987298 3.6875 6.5 C3.95949219 7.2940625 4.23148438 8.088125 4.51171875 8.90625 C5 11 5 11 4 13 C0.88303339 8.66335081 0.44033187 5.19591612 0 0 Z " fill="#2C292A" transform="translate(863,189)"/>
<path d="M0 0 C0.66 0.33 1.32 0.66 2 1 C0.63875 1.86625 0.63875 1.86625 -0.75 2.75 C-3.52022946 4.66785116 -5.71945499 6.54402845 -8 9 C-8 8.01 -8 7.02 -8 6 C-6.25 4.39453125 -6.25 4.39453125 -4 2.8125 C-3.2575 2.28269531 -2.515 1.75289062 -1.75 1.20703125 C-1.1725 0.80871094 -0.595 0.41039062 0 0 Z " fill="#332E30" transform="translate(569,144)"/>
<path d="M0 0 C4.50884026 2.31883213 6.93906776 5.06451569 10 9 C5.57238086 7.60846256 3.0443745 5.47928514 0 2 C0 1.34 0 0.68 0 0 Z " fill="#2A2627" transform="translate(957,206)"/>
<path d="M0 0 C0.66 0 1.32 0 2 0 C1.67 3.63 1.34 7.26 1 11 C-1 9 -1 9 -1.23046875 7.08984375 C-1.11111111 1.11111111 -1.11111111 1.11111111 0 0 Z " fill="#2F2C2C" transform="translate(830,141)"/>
<path d="M0 0 C-1.26239712 0.86658615 -2.53527501 1.71792059 -3.8125 2.5625 C-4.87404297 3.27599609 -4.87404297 3.27599609 -5.95703125 4.00390625 C-8 5 -8 5 -11 4 C-9.73760288 3.13341385 -8.46472499 2.28207941 -7.1875 1.4375 C-6.47980469 0.96183594 -5.77210938 0.48617187 -5.04296875 -0.00390625 C-3 -1 -3 -1 0 0 Z " fill="#2F2A2E" transform="translate(435,143)"/>
<path d="M0 0 C0.99 0.33 1.98 0.66 3 1 C3 1.66 3 2.32 3 3 C5.475 3.99 5.475 3.99 8 5 C8 5.66 8 6.32 8 7 C5.05043472 5.63055898 2.47531189 4.12169591 0 2 C0 1.34 0 0.68 0 0 Z " fill="#2E272B" transform="translate(465,209)"/>
<path d="M0 0 C1.98 0 3.96 0 6 0 C6 0.66 6 1.32 6 2 C4.35 2 2.7 2 1 2 C1 2.66 1 3.32 1 4 C0.34 4 -0.32 4 -1 4 C-0.67 2.68 -0.34 1.36 0 0 Z " fill="#363234" transform="translate(713,141)"/>
</svg>
